<mxfile host="app.diagrams.net" modified="2024-05-02T16:38:50.526Z" agent="Mozilla/5.0 (Windows NT 10.0; Win64; x64) AppleWebKit/537.36 (KHTML, like Gecko) Chrome/124.0.0.0 Safari/537.36 Edg/124.0.0.0" etag="eguYRXmY-wINE1WFahhW" version="24.3.0" type="github">
  <diagram name="PÃ¡gina-1" id="05zmUnnNc99nJVokp02g">
    <mxGraphModel dx="1442" dy="985" grid="0" gridSize="10" guides="1" tooltips="1" connect="1" arrows="1" fold="1" page="0" pageScale="1" pageWidth="827" pageHeight="1169" background="#050505" math="0" shadow="0">
      <root>
        <mxCell id="0" />
        <mxCell id="1" parent="0" />
        <mxCell id="VMDIk4Lbqt9CGseBp49F-1" value="&lt;i&gt;Passageiro&lt;/i&gt;" style="swimlane;fontStyle=1;align=center;verticalAlign=top;childLayout=stackLayout;horizontal=1;startSize=26;horizontalStack=0;resizeParent=1;resizeParentMax=0;resizeLast=0;collapsible=1;marginBottom=0;whiteSpace=wrap;html=1;strokeColor=#FFFFFF;fontColor=#FFFFFF;fillColor=#182E3E;" vertex="1" parent="1">
          <mxGeometry x="-154" y="7" width="194" height="164" as="geometry" />
        </mxCell>
        <mxCell id="VMDIk4Lbqt9CGseBp49F-7" value="+ nome: string" style="text;strokeColor=none;fillColor=none;align=left;verticalAlign=top;spacingLeft=4;spacingRight=4;overflow=hidden;rotatable=0;points=[[0,0.5],[1,0.5]];portConstraint=eastwest;whiteSpace=wrap;html=1;fontColor=#FFFFFF;" vertex="1" parent="VMDIk4Lbqt9CGseBp49F-1">
          <mxGeometry y="26" width="194" height="26" as="geometry" />
        </mxCell>
        <mxCell id="VMDIk4Lbqt9CGseBp49F-2" value="+ numero_poltrona: int" style="text;strokeColor=none;fillColor=none;align=left;verticalAlign=top;spacingLeft=4;spacingRight=4;overflow=hidden;rotatable=0;points=[[0,0.5],[1,0.5]];portConstraint=eastwest;whiteSpace=wrap;html=1;fontColor=#FFFFFF;" vertex="1" parent="VMDIk4Lbqt9CGseBp49F-1">
          <mxGeometry y="52" width="194" height="26" as="geometry" />
        </mxCell>
        <mxCell id="VMDIk4Lbqt9CGseBp49F-3" value="" style="line;strokeWidth=1;fillColor=none;align=left;verticalAlign=middle;spacingTop=-1;spacingLeft=3;spacingRight=3;rotatable=0;labelPosition=right;points=[];portConstraint=eastwest;strokeColor=inherit;fontColor=#FFFFFF;" vertex="1" parent="VMDIk4Lbqt9CGseBp49F-1">
          <mxGeometry y="78" width="194" height="8" as="geometry" />
        </mxCell>
        <mxCell id="VMDIk4Lbqt9CGseBp49F-16" value="&lt;i&gt;+ fazer_check_in(): void&lt;/i&gt;" style="text;strokeColor=none;fillColor=none;align=left;verticalAlign=top;spacingLeft=4;spacingRight=4;overflow=hidden;rotatable=0;points=[[0,0.5],[1,0.5]];portConstraint=eastwest;whiteSpace=wrap;html=1;fontColor=#FFFFFF;" vertex="1" parent="VMDIk4Lbqt9CGseBp49F-1">
          <mxGeometry y="86" width="194" height="26" as="geometry" />
        </mxCell>
        <mxCell id="VMDIk4Lbqt9CGseBp49F-17" value="+ passar_pela_seguranca: void" style="text;strokeColor=none;fillColor=none;align=left;verticalAlign=top;spacingLeft=4;spacingRight=4;overflow=hidden;rotatable=0;points=[[0,0.5],[1,0.5]];portConstraint=eastwest;whiteSpace=wrap;html=1;fontColor=#FFFFFF;fontStyle=2" vertex="1" parent="VMDIk4Lbqt9CGseBp49F-1">
          <mxGeometry y="112" width="194" height="26" as="geometry" />
        </mxCell>
        <mxCell id="VMDIk4Lbqt9CGseBp49F-4" value="&lt;i&gt;+ embarcar(): void&lt;/i&gt;" style="text;strokeColor=none;fillColor=none;align=left;verticalAlign=top;spacingLeft=4;spacingRight=4;overflow=hidden;rotatable=0;points=[[0,0.5],[1,0.5]];portConstraint=eastwest;whiteSpace=wrap;html=1;fontColor=#FFFFFF;" vertex="1" parent="VMDIk4Lbqt9CGseBp49F-1">
          <mxGeometry y="138" width="194" height="26" as="geometry" />
        </mxCell>
        <mxCell id="VMDIk4Lbqt9CGseBp49F-19" style="edgeStyle=none;curved=1;rounded=0;orthogonalLoop=1;jettySize=auto;html=1;exitX=0.5;exitY=0;exitDx=0;exitDy=0;strokeColor=#23445D;fontSize=12;startSize=8;endSize=8;" edge="1" parent="1">
          <mxGeometry relative="1" as="geometry">
            <mxPoint x="-91.99996948242188" y="175.20001220703125" as="targetPoint" />
            <mxPoint x="-204" y="222" as="sourcePoint" />
          </mxGeometry>
        </mxCell>
        <mxCell id="VMDIk4Lbqt9CGseBp49F-8" value="PassageiroEconomica" style="swimlane;fontStyle=1;align=center;verticalAlign=top;childLayout=stackLayout;horizontal=1;startSize=26;horizontalStack=0;resizeParent=1;resizeParentMax=0;resizeLast=0;collapsible=1;marginBottom=0;whiteSpace=wrap;html=1;strokeColor=#FFFFFF;fontColor=#FFFFFF;fillColor=#182E3E;" vertex="1" parent="1">
          <mxGeometry x="-305" y="225" width="174" height="112" as="geometry" />
        </mxCell>
        <mxCell id="VMDIk4Lbqt9CGseBp49F-10" value="" style="line;strokeWidth=1;fillColor=none;align=left;verticalAlign=middle;spacingTop=-1;spacingLeft=3;spacingRight=3;rotatable=0;labelPosition=right;points=[];portConstraint=eastwest;strokeColor=inherit;fontColor=#FFFFFF;" vertex="1" parent="VMDIk4Lbqt9CGseBp49F-8">
          <mxGeometry y="26" width="174" height="8" as="geometry" />
        </mxCell>
        <mxCell id="VMDIk4Lbqt9CGseBp49F-26" value="+fazer_check_in():void" style="text;strokeColor=none;fillColor=none;align=left;verticalAlign=top;spacingLeft=4;spacingRight=4;overflow=hidden;rotatable=0;points=[[0,0.5],[1,0.5]];portConstraint=eastwest;whiteSpace=wrap;html=1;fontColor=#FFFFFF;" vertex="1" parent="VMDIk4Lbqt9CGseBp49F-8">
          <mxGeometry y="34" width="174" height="26" as="geometry" />
        </mxCell>
        <mxCell id="VMDIk4Lbqt9CGseBp49F-27" value="+passar_pela_seguranca:void" style="text;strokeColor=none;fillColor=none;align=left;verticalAlign=top;spacingLeft=4;spacingRight=4;overflow=hidden;rotatable=0;points=[[0,0.5],[1,0.5]];portConstraint=eastwest;whiteSpace=wrap;html=1;fontColor=#FFFFFF;" vertex="1" parent="VMDIk4Lbqt9CGseBp49F-8">
          <mxGeometry y="60" width="174" height="26" as="geometry" />
        </mxCell>
        <mxCell id="VMDIk4Lbqt9CGseBp49F-20" value="+embarcar():void" style="text;strokeColor=none;fillColor=none;align=left;verticalAlign=top;spacingLeft=4;spacingRight=4;overflow=hidden;rotatable=0;points=[[0,0.5],[1,0.5]];portConstraint=eastwest;whiteSpace=wrap;html=1;fontColor=#FFFFFF;" vertex="1" parent="VMDIk4Lbqt9CGseBp49F-8">
          <mxGeometry y="86" width="174" height="26" as="geometry" />
        </mxCell>
        <mxCell id="VMDIk4Lbqt9CGseBp49F-12" value="PassageiroExecutiva" style="swimlane;fontStyle=1;align=center;verticalAlign=top;childLayout=stackLayout;horizontal=1;startSize=26;horizontalStack=0;resizeParent=1;resizeParentMax=0;resizeLast=0;collapsible=1;marginBottom=0;whiteSpace=wrap;html=1;strokeColor=#FFFFFF;fontColor=#FFFFFF;fillColor=#182E3E;" vertex="1" parent="1">
          <mxGeometry x="49" y="222" width="227" height="112" as="geometry" />
        </mxCell>
        <mxCell id="VMDIk4Lbqt9CGseBp49F-14" value="" style="line;strokeWidth=1;fillColor=none;align=left;verticalAlign=middle;spacingTop=-1;spacingLeft=3;spacingRight=3;rotatable=0;labelPosition=right;points=[];portConstraint=eastwest;strokeColor=inherit;fontColor=#FFFFFF;" vertex="1" parent="VMDIk4Lbqt9CGseBp49F-12">
          <mxGeometry y="26" width="227" height="8" as="geometry" />
        </mxCell>
        <mxCell id="VMDIk4Lbqt9CGseBp49F-28" value="+fazer_check_in():void" style="text;strokeColor=none;fillColor=none;align=left;verticalAlign=top;spacingLeft=4;spacingRight=4;overflow=hidden;rotatable=0;points=[[0,0.5],[1,0.5]];portConstraint=eastwest;whiteSpace=wrap;html=1;fontColor=#FFFFFF;" vertex="1" parent="VMDIk4Lbqt9CGseBp49F-12">
          <mxGeometry y="34" width="227" height="26" as="geometry" />
        </mxCell>
        <mxCell id="VMDIk4Lbqt9CGseBp49F-29" value="+passar_pela_seguranca: void" style="text;strokeColor=none;fillColor=none;align=left;verticalAlign=top;spacingLeft=4;spacingRight=4;overflow=hidden;rotatable=0;points=[[0,0.5],[1,0.5]];portConstraint=eastwest;whiteSpace=wrap;html=1;fontColor=#FFFFFF;" vertex="1" parent="VMDIk4Lbqt9CGseBp49F-12">
          <mxGeometry y="60" width="227" height="26" as="geometry" />
        </mxCell>
        <mxCell id="VMDIk4Lbqt9CGseBp49F-15" value="+ embarcar(): void" style="text;strokeColor=none;fillColor=none;align=left;verticalAlign=top;spacingLeft=4;spacingRight=4;overflow=hidden;rotatable=0;points=[[0,0.5],[1,0.5]];portConstraint=eastwest;whiteSpace=wrap;html=1;fontColor=#FFFFFF;" vertex="1" parent="VMDIk4Lbqt9CGseBp49F-12">
          <mxGeometry y="86" width="227" height="26" as="geometry" />
        </mxCell>
        <mxCell id="VMDIk4Lbqt9CGseBp49F-18" style="edgeStyle=none;curved=1;rounded=0;orthogonalLoop=1;jettySize=auto;html=1;exitX=0.5;exitY=0;exitDx=0;exitDy=0;entryX=0.694;entryY=1.246;entryDx=0;entryDy=0;entryPerimeter=0;strokeColor=#23445D;fontSize=12;startSize=8;endSize=8;" edge="1" parent="1" source="VMDIk4Lbqt9CGseBp49F-12" target="VMDIk4Lbqt9CGseBp49F-4">
          <mxGeometry relative="1" as="geometry" />
        </mxCell>
        <mxCell id="VMDIk4Lbqt9CGseBp49F-25" style="edgeStyle=none;curved=1;rounded=0;orthogonalLoop=1;jettySize=auto;html=1;exitX=0.75;exitY=0;exitDx=0;exitDy=0;strokeColor=#23445D;fontSize=12;startSize=8;endSize=8;" edge="1" parent="1" source="VMDIk4Lbqt9CGseBp49F-1" target="VMDIk4Lbqt9CGseBp49F-1">
          <mxGeometry relative="1" as="geometry" />
        </mxCell>
      </root>
    </mxGraphModel>
  </diagram>
</mxfile>
